# xmcd
#
# Track frame offsets:
# 150
# 14614
# 26878
# 42991
# 61646
# 78859
# 92709
# 110022
# 125863
# 137775
# 151784
#
# Disc length: 2066 seconds
#
# Revision: 1
# Processed by: cddbd v1.5.2PL0 Copyright (c) Steve Scherf et al.
# Submitted via: CedeCatalogueitor 2.6.0.6 http://personales.ya.com/cdcatalogueitor
#
DISCID=8e08100b
DTITLE=Nando Caballero - Vuit Dissabtes D'hivern
DYEAR=1900
DGENRE=
TTITLE0=Afegir Amics
TTITLE1=Ulleres I Ulls
TTITLE2=Fem Dissabte
TTITLE3=Carrusel
TTITLE4=Badalona
TTITLE5=Petit Comet
TTITLE6=El Mobles Moven El Veins
TTITLE7=Ja No Falten Mes Cançons
TTITLE8=4 Moons
TTITLE9=Pels Volts De Quearts De Tres
TTITLE10=Estació Plar Cowboy
EXTD=
EXTT0=
EXTT1=
EXTT2=
EXTT3=
EXTT4=
EXTT5=
EXTT6=
EXTT7=
EXTT8=
EXTT9=
EXTT10=
PLAYORDER=
